<?xml version="1.0" encoding="utf-8"?><svg viewBox="0 0 96 25" xmlns="http://www.w3.org/2000/svg" xmlns:xlink="http://www.w3.org/1999/xlink"><style>:root>svg{display:none}:root>svg:target{display:block}</style><svg viewBox="0 0 9 14" id="arrow" xmlns="http://www.w3.org/2000/svg"><path d="M.172 12.283L5.455 7 .172 1.717l1.63-1.63L8.717 7l-6.913 6.914-1.63-1.63z"/></svg><svg viewBox="0 0 24 24" id="facebookhero" xmlns="http://www.w3.org/2000/svg"><g clip-path="url(#ba)"><path d="M14.992 5.819H17V2.162C16.654 2.112 15.462 2 14.074 2 11.18 2 9.195 3.904 9.195 7.404v3.221H6v4.088h3.195V25h3.918V14.714h3.066l.486-4.088h-3.553V7.809c0-1.181.305-1.99 1.88-1.99z"/></g><defs><clipPath id="ba"><path d="M0 0h24v24H0z"/></clipPath></defs></svg><svg viewBox="0 0 24 24" id="instagramhero" xmlns="http://www.w3.org/2000/svg"><path d="M7.8 2h8.4A5.8 5.8 0 0122 7.8v8.4a5.8 5.8 0 01-5.8 5.8H7.8A5.8 5.8 0 012 16.2V7.8A5.8 5.8 0 017.8 2zm-.2 2A3.6 3.6 0 004 7.6v8.8A3.6 3.6 0 007.6 20h8.8a3.6 3.6 0 003.6-3.6V7.6A3.6 3.6 0 0016.4 4H7.6zm9.65 1.5a1.25 1.25 0 110 2.5 1.25 1.25 0 010-2.5zM12 7a5 5 0 110 10 5 5 0 010-10zm0 2a3 3 0 100 6 3 3 0 000-6z"/></svg><svg viewBox="0 0 96 25" id="logo" xmlns="http://www.w3.org/2000/svg"><g clip-path="url(#da)"><path d="M17.707 11.41c0 1.274-.152 2.442-.457 3.504-.297 1.055-.758 1.969-1.383 2.742a6.419 6.419 0 01-2.379 1.817l4.125 4.605h-4.652l-3.14-3.844H9.55c-1.398 0-2.609-.207-3.632-.62-1.023-.423-1.871-1.024-2.543-1.805-.664-.782-1.16-1.715-1.488-2.801-.328-1.086-.492-2.293-.492-3.621 0-1.774.289-3.317.867-4.63.586-1.32 1.484-2.343 2.695-3.07 1.211-.726 2.75-1.09 4.617-1.09 1.86 0 3.387.364 4.582 1.09 1.203.727 2.094 1.75 2.672 3.07.586 1.321.879 2.872.879 4.653zm-12.504 0c0 1.195.149 2.227.445 3.094.305.86.778 1.523 1.418 1.992.641.461 1.47.692 2.485.692 1.031 0 1.867-.231 2.508-.692.64-.469 1.105-1.133 1.394-1.992.297-.867.445-1.899.445-3.094 0-1.797-.335-3.21-1.007-4.242-.672-1.031-1.778-1.547-3.317-1.547-1.023 0-1.86.234-2.508.703-.64.461-1.113 1.125-1.418 1.992-.296.86-.445 1.891-.445 3.094zm37.342-8.543L38.185 20H34.05l-2.32-9c-.048-.172-.11-.434-.188-.785a83.8 83.8 0 01-.48-2.332 16.253 16.253 0 01-.13-.89c-.023.218-.07.51-.14.878-.063.367-.137.758-.223 1.172a42.663 42.663 0 01-.422 1.98L27.838 20h-4.125L19.342 2.867h3.574l2.191 9.352c.063.281.133.617.211 1.008.086.39.168.8.246 1.23.086.422.16.832.223 1.23.07.391.121.731.152 1.02a77.434 77.434 0 01.352-2.238c.078-.414.156-.797.234-1.149.078-.351.149-.636.211-.855l2.496-9.598h3.434l2.496 9.598c.055.21.117.496.187.855a39.808 39.808 0 01.445 2.367c.071.391.122.731.153 1.02.055-.39.129-.863.223-1.418.101-.562.207-1.121.316-1.676.117-.554.219-1.02.305-1.394l2.18-9.352h3.574zM54.808 20h-9.867V2.867h9.867v2.977h-6.234v3.761h5.8v2.977h-5.8V17h6.234v3zm8.818-17.133c1.555 0 2.836.188 3.844.563 1.016.375 1.77.941 2.262 1.699.492.758.738 1.715.738 2.871 0 .781-.148 1.465-.445 2.05a4.677 4.677 0 01-1.172 1.49 6.93 6.93 0 01-1.57.995L72.322 20H68.29l-4.09-6.574h-1.933V20h-3.633V2.867h4.992zm-.258 2.977h-1.101v4.629h1.172c1.203 0 2.062-.2 2.578-.598.523-.406.785-1 .785-1.781 0-.813-.281-1.39-.844-1.735-.554-.343-1.418-.515-2.59-.515zm9.194 1.054h3.914l2.472 7.372c.078.234.145.472.2.714a11.208 11.208 0 01.234 1.559h.07c.047-.422.11-.816.188-1.184.086-.367.191-.73.316-1.09l2.426-7.37h3.832L80.67 21.675c-.336.906-.774 1.66-1.313 2.262a5.269 5.269 0 01-1.863 1.37c-.695.305-1.46.458-2.297.458a6.86 6.86 0 01-1.054-.07 8.97 8.97 0 01-.762-.13V22.73a6.382 6.382 0 001.406.152c.5 0 .93-.106 1.29-.317.359-.21.66-.496.901-.855a4.59 4.59 0 00.575-1.16l.21-.645-5.202-13.008z"/></g><defs><clipPath id="da"><path d="M0 0h96v32H0z"/></clipPath></defs></svg><svg viewBox="0 0 16 24" id="scroll" xmlns="http://www.w3.org/2000/svg"><path d="M16 16l-1.41-1.41L9 20.17V0H7v20.17l-5.58-5.59L0 16l8 8 8-8z"/></svg><svg viewBox="0 0 20 20" id="search" xmlns="http://www.w3.org/2000/svg"><path d="M15.564 16.34l-4.762-4.764a5 5 0 111.179-1.18l4.762 4.764-1.178 1.178-.001.001zM7.904 4.166a3.333 3.333 0 102.43 1.053l.505.5-.568-.567-.01-.01a3.31 3.31 0 00-2.357-.976z"/></svg><svg viewBox="0 0 24 24" id="twitterhero" xmlns="http://www.w3.org/2000/svg"><path d="M22.918 6.012a8.58 8.58 0 01-2.464.676 4.305 4.305 0 001.886-2.374 8.591 8.591 0 01-2.725 1.041 4.292 4.292 0 00-7.313 3.914 12.184 12.184 0 01-8.846-4.483 4.271 4.271 0 00-.58 2.157 4.29 4.29 0 001.908 3.572 4.276 4.276 0 01-1.943-.537v.054a4.295 4.295 0 003.442 4.209 4.296 4.296 0 01-1.938.073 4.296 4.296 0 004.009 2.98 8.61 8.61 0 01-5.33 1.838c-.347 0-.688-.02-1.024-.06A12.147 12.147 0 008.579 21c7.894 0 12.21-6.54 12.21-12.21 0-.187-.004-.372-.012-.556a8.719 8.719 0 002.141-2.222z"/></svg></svg>